# xmcd
#
# Track frame offsets:
#	150
#	17025
#	36450
#	54975
#	72375
#	93075
#	111225
#	129000
#	149400
#	166275
#	185550
#	204075
#	221475
#	242175
#	260325
#	278100
#
# Disc length: 3980 seconds
#
# Revision: 2
# Processed by: cddbd v1.5.2PL0 Copyright (c) Steve Scherf et al.
# Submitted via: audiograbber 1.83.01
#
DISCID=e40f8a10
DTITLE=Party Tyme Karaoke - Girl Country 10
DYEAR=2012
DGENRE=Karaoke
TTITLE0=Carrie Underwood - Good Girl
TTITLE1=Taylor Swift - Ours
TTITLE2=Band Perry, The - All Your Life
TTITLE3=Little Big Town - Pontoon
TTITLE4=Taylor Swift - Sparks Fly
TTITLE5=Jana Kramer - Why Ya Wanna
TTITLE6=Band Perry, The - Postcard From Paris
TTITLE7=Miranda Lambert - Over You
TTITLE8=Carrie Underwood - Good Girl w - vocals
TTITLE9=Taylor Swift - Ours w - vocals
TTITLE10=Band Perry, The - All Your Life w - vocals
TTITLE11=Little Big Town - Pontoon w - vocals
TTITLE12=Taylor Swift - Sparks Fly w - vocals
TTITLE13=Jana Kramer - Why Ya Wanna w - vocals
TTITLE14=Band Perry, The - Postcard From Paris w - vocals
TTITLE15=Miranda Lambert - Over You w - vocals
EXTD=
EXTT0=
EXTT1=
EXTT2=
EXTT3=
EXTT4=
EXTT5=
EXTT6=
EXTT7=
EXTT8=
EXTT9=
EXTT10=
EXTT11=
EXTT12=
EXTT13=
EXTT14=
EXTT15=
PLAYORDER=
